 <svg version="1.0" xmlns="http://www.w3.org/2000/svg" width="700.000000pt" height="494.000000pt" viewBox="0 0 700.000000 494.000000" preserveAspectRatio="xMidYMid meet">
<metadata>
Created by potrace 1.12, written by Peter Selinger 2001-2015
</metadata>
<g transform="translate(0.000000,494.000000) scale(0.100000,-0.100000)" fill="#000000" stroke="none">
<path d="M3165 4470 c-468 -28 -994 -190 -1352 -419 -332 -213 -634 -546 -755
-836 -12 -27 -25 -55 -29 -60 -12 -16 -70 -213 -85 -288 -47 -235 -33 -507 41
-751 119 -398 427 -779 845 -1048 112 -72 346 -191 420 -213 14 -4 43 -15 65
-25 130 -60 462 -140 684 -167 178 -21 589 -23 761 -4 331 37 640 129 960 285
318 154 640 429 820 698 249 372 332 754 259 1183 -37 221 -171 514 -327 714
-97 125 -174 203 -312 318 -303 252 -565 383 -1045 522 -74 22 -335 66 -470
81 -136 14 -333 18 -480 10z m330 -20 c599 -40 1143 -224 1536 -519 287 -217
465 -421 605 -698 219 -431 219 -959 -1 -1387 -136 -266 -312 -466 -593 -678
-328 -246 -769 -417 -1237 -480 -210 -28 -582 -31 -787 -5 -685 86 -1274 375
-1653 812 -447 515 -550 1164 -275 1731 155 319 377 566 705 786 176 117 507
264 750 331 182 51 453 95 650 107 72 4 132 8 135 8 3 1 77 -3 165 -8z"></path>
<path d="M3040 3980 c-166 -26 -251 -45 -377 -86 -241 -78 -443 -182 -616
-317 -464 -362 -642 -876 -476 -1371 34 -101 77 -183 160 -306 181 -266 473
-481 838 -616 87 -32 101 -41 101 -60 0 -61 -134 -174 -275 -231 -125 -50
-114 -56 86 -50 137 4 190 9 249 27 116 33 217 86 273 142 l50 50 145 -12
c289 -25 617 13 902 104 311 100 578 261 780 472 221 230 323 443 361 753 20
171 -23 407 -106 577 -188 386 -542 672 -1033 834 -231 76 -402 102 -697 106
-199 3 -261 0 -365 -16z m-574 -721 c98 -13 206 -56 298 -118 121 -82 136 -48
-153 -334 l-253 -250 129 -131 c70 -72 178 -182 238 -244 l110 -112 -30 -25
c-106 -88 -293 -155 -434 -155 -213 0 -427 103 -556 268 -63 81 -117 196 -134
286 -74 403 211 781 619 819 71 7 90 7 166 -4z m2042 -44 c80 -19 222 -85 285
-133 62 -47 112 -114 173 -231 l49 -93 3 -411 c2 -225 1 -416 -3 -424 -4 -12
-13 -8 -42 17 -49 44 -92 60 -156 60 -84 0 -195 -49 -196 -87 -1 -18 -6 -16
-35 10 -14 12 -35 30 -46 39 -29 26 -101 41 -173 36 -50 -3 -72 -10 -105 -33
-23 -17 -44 -38 -48 -47 -7 -24 -21 -23 -29 2 -3 11 -11 20 -16 20 -5 0 -19 8
-30 18 -28 26 -118 46 -178 39 -59 -7 -95 -24 -140 -66 -18 -17 -35 -31 -37
-31 -2 0 -4 191 -4 423 0 393 1 428 19 480 29 84 65 139 148 228 64 67 89 86
167 123 90 43 137 61 186 69 56 10 149 6 208 -8z m-1520 -509 c51 -27 75 -62
80 -118 5 -63 -21 -109 -78 -139 -66 -36 -143 -14 -188 52 -34 49 -27 127 14
170 16 17 38 35 49 39 32 14 93 11 123 -4z m530 -16 c125 -77 73 -270 -74
-270 -77 0 -149 70 -149 145 0 108 131 181 223 125z"></path>
<path d="M4552 2870 c-51 -23 -77 -73 -69 -131 7 -52 32 -85 84 -110 39 -19
50 -20 83 -10 47 14 97 69 106 115 7 42 -18 100 -57 129 -38 27 -96 30 -147 7z
m95 -42 c51 -48 15 -138 -54 -138 -70 0 -106 78 -62 134 27 34 82 36 116 4z"></path>
<path d="M4048 2865 c-62 -17 -68 -21 -84 -62 -17 -40 -13 -59 28 -119 53 -79
108 -100 174 -66 73 37 106 104 81 164 -17 39 -51 73 -90 87 -34 13 -47 12
-109 -4z m83 -54 c33 -33 35 -50 14 -90 -16 -33 -33 -41 -80 -41 -67 0 -99 87
-50 135 34 35 78 33 116 -4z"></path>
</g>
</svg>